<svg xmlns="http://www.w3.org/2000/svg" xmlns:xlink="http://www.w3.org/1999/xlink" height="512" width="512"><linearGradient id="A" gradientUnits="userSpaceOnUse" x1="74.981" x2="437.019" y1="437.019" y2="74.981"><stop offset="0" stop-color="#ff4c4c"/><stop offset="1" stop-color="#fff200"/></linearGradient><radialGradient id="B" cx="256" cy="256" gradientUnits="userSpaceOnUse" r="256"><stop offset="0" stop-color="#ff4c4c"/><stop offset=".108" stop-color="#ff544e" stop-opacity=".887"/><stop offset=".269" stop-color="#ff6853" stop-opacity=".718"/><stop offset=".464" stop-color="#ff895c" stop-opacity=".514"/><stop offset=".684" stop-color="#ffb767" stop-opacity=".283"/><stop offset=".923" stop-color="#fff276" stop-opacity=".033"/><stop offset=".954" stop-color="#fffa78" stop-opacity="0"/></radialGradient><linearGradient id="C" gradientUnits="userSpaceOnUse"><stop offset="0" stop-color="#ffb11d"/><stop offset="1" stop-color="#feffd6"/></linearGradient><linearGradient id="D" x1="-22.227" x2="508.48" xlink:href="#C" y1="507.611" y2="-23.096"/><linearGradient id="E" x1="25.453" x2="444.325" xlink:href="#C" y1="585.686" y2="166.814"/><linearGradient id="F" gradientUnits="userSpaceOnUse"><stop offset="0" stop-color="#ffcb00"/><stop offset="1" stop-color="#fff"/></linearGradient><linearGradient id="G" x1="-251.131" x2="430.889" xlink:href="#F" y1="594.911" y2="-87.109"/><linearGradient id="H" x1="-341.921" x2="450.584" xlink:href="#F" y1="874.427" y2="81.923"/><linearGradient id="I" x1="39.357" x2="218.957" xlink:href="#C" y1="231.384" y2="51.784"/><linearGradient id="J" x1="12.455" x2="192.59" xlink:href="#C" y1="242.313" y2="62.177"/><linearGradient id="K" x1="38.555" x2="216.406" xlink:href="#C" y1="291.229" y2="113.379"/><linearGradient id="L" x1="11.475" x2="189.906" xlink:href="#C" y1="301.921" y2="123.49"/><linearGradient id="M" x1="39.651" x2="214.595" xlink:href="#C" y1="350.67" y2="175.726"/><linearGradient id="N" x1="12.511" x2="188.193" xlink:href="#C" y1="360.994" y2="185.313"/><linearGradient id="O" x1="150.183" x2="327.827" xlink:href="#C" y1="302" y2="124.355"/><linearGradient id="P" x1="120.431" x2="298.084" xlink:href="#C" y1="314.87" y2="137.217"/><linearGradient id="Q" x1="150.702" x2="327.794" xlink:href="#C" y1="240.37" y2="63.278"/><linearGradient id="R" x1="121.219" x2="298.164" xlink:href="#C" y1="253.05" y2="76.106"/><linearGradient id="S" x1="211.815" x2="388.93" xlink:href="#C" y1="301.776" y2="124.66"/><linearGradient id="T" x1="182.264" x2="359.01" xlink:href="#C" y1="314.334" y2="137.588"/><linearGradient id="U" x1="212.251" x2="387.659" xlink:href="#C" y1="239.658" y2="64.25"/><linearGradient id="V" x1="183.022" x2="357.857" xlink:href="#C" y1="251.804" y2="76.969"/><linearGradient id="W" x1="273.569" x2="449.868" xlink:href="#C" y1="301.571" y2="125.272"/><linearGradient id="X" x1="244.298" x2="419.797" xlink:href="#C" y1="313.828" y2="138.33"/><linearGradient id="Y" x1="273.919" x2="447.362" xlink:href="#C" y1="239.275" y2="65.832"/><linearGradient id="Z" x1="245.029" x2="417.409" xlink:href="#C" y1="250.891" y2="78.511"/><linearGradient id="a" x1="335.445" x2="510.64" xlink:href="#C" y1="301.384" y2="126.188"/><linearGradient id="b" x1="306.534" x2="480.445" xlink:href="#C" y1="313.351" y2="139.44"/><linearGradient id="c" x1="334.186" x2="512.237" xlink:href="#C" y1="363.077" y2="185.026"/><linearGradient id="d" x1="304.968" x2="482.157" xlink:href="#C" y1="375.767" y2="198.578"/><linearGradient id="e" x1="335.71" x2="506.896" xlink:href="#C" y1="239.214" y2="68.029"/><linearGradient id="f" x1="307.235" x2="476.823" xlink:href="#C" y1="250.318" y2="80.73"/><linearGradient id="g" x1="100.592" x2="279.082" xlink:href="#C" y1="230.091" y2="51.6"/><linearGradient id="h" x1="73.74" x2="252.453" xlink:href="#C" y1="240.51" y2="61.798"/><linearGradient id="i" x1="99.949" x2="277.841" xlink:href="#C" y1="290.964" y2="113.072"/><linearGradient id="j" x1="72.883" x2="251.098" xlink:href="#C" y1="301.349" y2="123.135"/><linearGradient id="k" x1="10.639" x2="693.302" xlink:href="#C" y1="533.317" y2="-149.346"/><linearGradient id="l" x1="-81.357" x2="578.092" xlink:href="#C" y1="608.544" y2="-50.905"/><circle cx="256" cy="256" fill="url(#A)" r="256"/><circle cx="256" cy="256" fill="url(#B)" r="256"/><path d="M194.52 240.664L64.738 316l1.9 45c.923 16.543 15.322 30.47 31.852 30.994l97.5 2.036-1.48-153.366z" fill="url(#D)"/><path d="M163.778 240.71l1.333 122.31c.46 16.873 14.357 30.81 30.89 31.01l1.287.015a14.4 14.4 0 0 0 10.53-4.387l6.132-6.31c2.783-2.86 6.6-4.452 10.6-4.432l47.823.06c4-.01 7.825 1.593 10.623 4.462l6.165 6.33c2.785 2.865 6.575 4.455 10.554 4.42l113.787-2.198c16.53-.522 30.93-14.45 31.852-30.994l1.9-45-283.486-75.288z" fill="url(#E)"/><path d="M98.5 120.006c-16.53.524-30.93 14.45-31.852 30.994-2.97 55-3.607 110-1.9 165l99.456 1.155c9.238-66.174 20.36-132.6 31.806-199.184l-97.5 2.035z" fill="url(#G)"/><path d="M413.5 120.006A5210.62 5210.62 0 0 0 196 117.97c-16.532.2-30.43 14.136-30.89 31.01a4209.35 4209.35 0 0 0-.917 168.175L447.26 316c1.698-55 1.06-110-1.9-165-.922-16.54-15.32-30.47-31.85-30.993z" fill="url(#H)"/><path d="M81.437 158.126l-.64 15.058c-.163 4.158 3.136 7.463 7.35 7.394l30.52-.48c4.215-.058 7.718-3.507 7.836-7.706l.472-15.202-45.538.936z" fill="url(#I)"/><path d="M120.292 134.555l-30.157.768c-4.162.118-7.73 3.588-7.952 7.745l-.745 15.058c-.193 4.156 3.07 7.453 7.27 7.367l30.417-.576c4.2-.072 7.7-3.53 7.85-7.727l.55-15.202c.16-4.198-3.073-7.53-7.235-7.433z" fill="url(#J)"/><path d="M79.52 218.356l-.213 15.058c-.045 4.156 3.374 7.515 7.62 7.5l30.74-.096c4.245-.013 7.702-3.422 7.734-7.622l.157-15.202-46.038.36z" fill="url(#K)"/><path d="M118.292 195.277l-30.602.384c-4.224.06-7.747 3.48-7.85 7.637l-.32 15.058c-.074 4.156 3.318 7.5 7.558 7.475l30.713-.192c4.24-.02 7.713-3.443 7.767-7.643l.236-15.202c.074-4.198-3.28-7.565-7.503-7.517z" fill="url(#L)"/><path d="M79.307 278.586l.213 15.058c.074 4.156 3.58 7.566 7.813 7.6l30.667.288c4.234.037 7.612-3.34 7.558-7.538l-.157-15.202-46.094-.216z" fill="url(#M)"/><path d="M117.625 256h-30.75c-4.245.001-7.69 3.373-7.674 7.53l.106 15.058c.044 4.156 3.532 7.553 7.77 7.583l30.713.192c4.24.025 7.64-3.36 7.61-7.56l-.08-15.202c-.01-4.198-3.45-7.602-7.696-7.6z" fill="url(#N)"/><path d="M202.29 217.636l-.065 15.345c-.014 4.236 3.42 7.67 7.665 7.665l30.74-.02c4.245-.002 7.687-3.444 7.688-7.69l.01-15.375-46.038.073z" fill="url(#O)"/><path d="M240.7 194.5l-30.602.077c-4.224.016-7.68 3.467-7.71 7.704l-.097 15.346c-.023 4.236 3.4 7.665 7.642 7.657l30.713-.038c4.24-.002 7.68-3.444 7.683-7.69l.014-15.375c.004-4.246-3.418-7.688-7.642-7.68z" fill="url(#P)"/><path d="M202.872 156.253l-.194 15.346c-.05 4.237 3.33 7.655 7.545 7.634l30.52-.096c4.215-.006 7.636-3.45 7.642-7.696l.028-15.375-45.54.187z" fill="url(#Q)"/><path d="M240.92 133.02l-30.157.154c-4.162.033-7.596 3.497-7.665 7.735l-.227 15.345c-.06 4.238 3.302 7.65 7.503 7.626l30.417-.115c4.2-.006 7.612-3.453 7.62-7.698l.032-15.375c.007-4.244-3.36-7.682-7.522-7.672z" fill="url(#R)"/><path d="M263.673 217.564l.01 15.375c.002 4.246 3.443 7.688 7.688 7.69l30.74.02c4.245.003 7.68-3.43 7.665-7.665l-.065-15.345-46.038-.073z" fill="url(#S)"/><path d="M301.903 194.586l-30.602-.077c-4.224-.006-7.646 3.435-7.642 7.68l.014 15.375c.003 4.244 3.443 7.69 7.683 7.69l30.713.038c4.24.01 7.665-3.42 7.642-7.657l-.097-15.346c-.032-4.234-3.487-7.69-7.71-7.704z" fill="url(#T)"/><path d="M263.6 156.066l.028 15.375c.006 4.243 3.427 7.69 7.642 7.696l30.52.096c4.215.02 7.595-3.397 7.545-7.634l-.194-15.346-45.54-.187z" fill="url(#U)"/><path d="M301.236 133.173l-30.157-.154c-4.162-.01-7.53 3.428-7.52 7.673l.032 15.375c.007 4.245 3.418 7.69 7.62 7.698l30.417.115c4.2.023 7.563-3.39 7.503-7.626l-.227-15.345c-.07-4.24-3.504-7.703-7.666-7.736z" fill="url(#V)"/><path d="M325.057 217.684L325.14 233c.017 4.232 3.467 7.67 7.71 7.675l30.74.057c4.244.01 7.67-3.394 7.642-7.602l-.14-15.24-46.038-.216z" fill="url(#W)"/><path d="M363.106 194.97l-30.602-.23c-4.224-.027-7.61 3.385-7.572 7.617l.125 15.327a7.76 7.76 0 0 0 7.725 7.686l30.713.115c4.24.018 7.65-3.378 7.6-7.585l-.208-15.24c-.068-4.206-3.556-7.65-7.78-7.7z" fill="url(#X)"/><path d="M324.307 156.378l.25 15.327c.062 4.234 3.524 7.688 7.74 7.72l30.52.288c4.215.046 7.554-3.326 7.447-7.533l-.417-15.24-45.538-.562z" fill="url(#Y)"/><path d="M361.55 133.94l-30.157-.46c-4.162-.053-7.462 3.338-7.378 7.572l.292 15.326c.073 4.23 3.533 7.693 7.734 7.73l30.417.346c4.2.053 7.513-3.31 7.387-7.516l-.486-15.24c-.146-4.206-3.647-7.684-7.81-7.758z" fill="url(#Z)"/><path d="M386.442 217.996l.157 15.202c.033 4.2 3.49 7.608 7.734 7.622l30.74.096c4.244.013 7.663-3.347 7.62-7.5l-.213-15.058-46.038-.36z" fill="url(#a)"/><path d="M424.3 195.66l-30.602-.384c-4.225-.047-7.578 3.317-7.503 7.517l.236 15.202c.054 4.198 3.525 7.618 7.767 7.643l30.713.192c4.24.027 7.633-3.32 7.558-7.475l-.32-15.058c-.103-4.157-3.626-7.575-7.85-7.637z" fill="url(#b)"/><path d="M386.6 278.802l-.157 15.202c-.054 4.2 3.325 7.576 7.558 7.538l30.667-.288c4.233-.044 7.74-3.454 7.813-7.6l.213-15.058-46.094.216z" fill="url(#c)"/><path d="M425.125 256h-30.75c-4.246 0-7.686 3.402-7.697 7.6l-.08 15.202c-.032 4.198 3.37 7.585 7.61 7.56l30.713-.192c4.24-.03 7.727-3.427 7.77-7.583l.107-15.058c.015-4.158-3.43-7.528-7.674-7.53z" fill="url(#d)"/><path d="M385.025 157.19l.472 15.202c.118 4.198 3.62 7.646 7.836 7.706l30.52.48c4.214.07 7.513-3.236 7.35-7.394l-.64-15.058-45.538-.936z" fill="url(#e)"/><path d="M421.866 135.323l-30.157-.768c-4.162-.095-7.395 3.234-7.234 7.433l.55 15.202c.14 4.2 3.65 7.657 7.85 7.727l30.417.576c4.2.085 7.464-3.21 7.27-7.367l-.745-15.058c-.223-4.156-3.792-7.627-7.953-7.745z" fill="url(#f)"/><path d="M142.155 156.94l-.417 15.24c-.107 4.208 3.233 7.58 7.447 7.533l30.52-.288c4.215-.03 7.677-3.488 7.74-7.72l.25-15.327-45.538.562z" fill="url(#g)"/><path d="M180.606 133.48l-30.157.46c-4.162.076-7.663 3.553-7.808 7.76l-.486 15.24a7.23 7.23 0 0 0 7.387 7.516l30.417-.346c4.2-.04 7.66-3.498 7.734-7.73l.292-15.326c.084-4.233-3.216-7.627-7.38-7.573z" fill="url(#h)"/><path d="M140.905 217.9l-.14 15.24c-.03 4.21 3.397 7.6 7.642 7.602l30.74-.057c4.245-.005 7.694-3.443 7.71-7.675l.083-15.326-46.038.216z" fill="url(#i)"/><path d="M179.495 194.74l-30.602.23c-4.224.037-7.713 3.482-7.78 7.7l-.208 15.24c-.05 4.208 3.36 7.604 7.6 7.585l30.713-.115a7.76 7.76 0 0 0 7.725-7.686l.125-15.327c.04-4.232-3.347-7.645-7.572-7.617z" fill="url(#j)"/><path d="M140.766 278.86l.14 15.24c.05 4.208 3.53 7.642 7.762 7.672h214.667c4.234-.03 7.714-3.465 7.762-7.672l.14-15.24h-230.47z" fill="url(#k)"/><path d="M363.625 256h-215.25c-4.246 0-7.69 3.412-7.68 7.62l.07 15.24c.03 4.208 3.5 7.635 7.74 7.655h214.99c4.24-.02 7.7-3.448 7.74-7.655l.07-15.24c.01-4.207-3.433-7.62-7.678-7.62z" fill="url(#l)"/></svg>