<svg xmlns="http://www.w3.org/2000/svg" xmlns:xlink="http://www.w3.org/1999/xlink" height="682.667" viewBox="-56 0 512 512" width="682.667"><path d="M399.8 95.012c-.1-1.453-.375-2.852-.855-4.227l-.535-1.504c-.773-1.656-1.746-3.227-3.082-4.57-.008-.008-.012-.02-.023-.027L315.316 4.69c-.008-.008-.02-.012-.03-.023-1.348-1.344-2.926-2.316-4.586-3.094-.465-.215-.95-.34-1.437-.512-1.414-.5-2.855-.79-4.352-.88-.316-.02-.586-.184-.9-.184H80c-8.836 0-16 7.164-16 16v64H16C7.164 80 0 87.164 0 96v400c0 8.836 7.164 16 16 16h288c8.836 0 16-7.164 16-16s-7.164-16-16-16H32V112h32v320c0 8.836 7.164 16 16 16h304c8.836 0 16-7.164 16-16V96c0-.352-.176-.64-.2-.988zM320 54.625L345.375 80H320zM96 416V32h192v64c0 8.836 7.164 16 16 16h64v304zm0 0"/><use xlink:href="#B"/><use xlink:href="#B" y="64"/><use xlink:href="#B" y="128"/><defs ><path id="B" d="M304 208H160c-8.836 0-16-7.164-16-16s7.164-16 16-16h144c8.836 0 16 7.164 16 16s-7.164 16-16 16zm0 0"/></defs></svg>