<svg xmlns="http://www.w3.org/2000/svg" height="758.667" viewBox="-38 0 569 569.286" width="758.667"><path d="M38.06 341.402H185.6L164.254 398.3h-21.88v18.965h208.633V398.3h-21.88l-21.336-56.902h147.53c20.95 0 37.934-16.984 37.934-37.934V37.934C493.258 16.984 476.273 0 455.324 0H38.06C17.105 0 .125 16.984.125 37.934v265.53c0 20.953 16.98 37.938 37.934 37.938zm270.8 56.898H184.508l21.34-56.902h81.687zm165.418-94.836a18.97 18.97 0 0 1-18.965 18.97H38.06c-10.477 0-18.97-8.492-18.97-18.97V284.5h455.203v18.965zM19.1 37.934c0-10.477 8.492-18.97 18.97-18.97h417.266c10.477 0 18.965 8.492 18.965 18.97V265.53H19.1zm28.443 398.3c-5.238 0-9.484 4.246-9.484 9.484v113.797c0 5.238 4.246 9.484 9.484 9.484h265.53c5.238 0 9.484-4.246 9.484-9.484V445.72c0-5.238-4.246-9.484-9.484-9.484zm256.047 113.8H57.023V455.2H303.6zM75.992 512.098h18.965v18.97H75.992zm189.664 0h18.97v18.97h-18.97zm-189.664-37.93h18.965v18.965H75.992zm37.934 0h18.965v18.965h-18.965zm37.934 0h18.965v18.965H151.86zm37.93 0h18.97v18.965H189.8zm0 0"/><path d="M227.723 474.168h18.97v18.965h-18.97zm37.933 0h18.97v18.965h-18.97zm0 0"/><path d="M113.926 512.098H246.7v18.97H113.926zm246.566-28.45v37.934c0 26.188 21.227 47.418 47.414 47.418s47.418-21.23 47.418-47.418v-37.934c0-26.187-21.23-47.414-47.418-47.414s-47.414 21.227-47.414 47.414zm75.867 0v37.934c0 15.715-12.738 28.45-28.453 28.45s-28.45-12.734-28.45-28.45v-37.934a28.45 28.45 0 0 1 18.969-26.703v26.703H417.4v-26.703a28.45 28.45 0 0 1 18.969 26.703zM300.816 111.02l-94.828 94.828-13.414-13.4 94.832-94.832zm-47.426-9.48l-56.898 56.898-13.4-13.414L240 88.126zm0 0"/><path d="M310.297 158.438l-56.898 56.898-13.4-13.4 56.895-56.898zm0 0"/></svg>