<svg xmlns="http://www.w3.org/2000/svg" width="512" height="512" fill="#04e7e7"><path d="M503.448 270.853c4.723 0 8.552-3.83 8.552-8.553v-18.098c0-18.545-15.088-33.633-33.633-33.633H33.633C15.088 210.568 0 225.656 0 244.202V437.92c0 18.545 15.088 33.634 33.633 33.634h444.734c18.545 0 33.633-15.088 33.633-33.634v-147.1c0-4.723-3.83-8.553-8.552-8.553s-8.553 3.83-8.553 8.553v147.1c0 9.114-7.414 16.53-16.528 16.53H33.633a16.55 16.55 0 0 1-16.528-16.529v-193.72a16.55 16.55 0 0 1 16.528-16.528h444.734a16.55 16.55 0 0 1 16.528 16.528V262.3c0 4.724 3.83 8.553 8.553 8.553zm-35.7-24.595H44.242c-4.723 0-8.552 3.83-8.552 8.552v172.5c0 4.723 3.83 8.552 8.552 8.552h151.33c4.723 0 8.553-3.83 8.553-8.552s-3.83-8.552-8.553-8.552h-13.1v-26.02h137.55v26.02l-95.94.001c-4.723 0-8.553 3.83-8.553 8.552s3.83 8.552 8.553 8.552h243.68c4.723 0 8.552-3.83 8.552-8.552V254.8c.001-4.723-3.828-8.552-8.552-8.552zm-48.55 17.105h39.998v26.02h-39.998v-26.02zm-51.552 86.25h34.447v26.02h-34.447v-26.02zm-30.53-17.105v-26.02h34.447v26.02h-34.447zm51.552 0v-26.02h34.446v26.02h-34.446zm-21.02-69.145h34.447v26.02h-34.447v-26.02zm-51.552 0h34.447v26.02h-34.447v-26.02zm3.917 43.125v26.02h-34.447v-26.02h34.447zm-55.47-43.125H299v26.02h-34.447v-26.02zm3.917 43.125v26.02h-34.447v-26.02h34.447zm-55.467-43.125h34.446v26.02h-34.446v-26.02zm3.916 43.125v26.02h-34.45v-26.02h34.447zm-55.468-43.125h34.447v26.02H161.45v-26.02zm-30.532 69.145v-26.02h34.447v26.02H130.92zm13.428 17.105v26.02H109.9v-26.02h34.447zm-34.447-86.25h34.447l-.001 26.02H109.9v-26.02zm-57.105 0h40v26.02h-40v-26.02zm0 43.125h61.02v26.02h-61.02v-26.02zm0 43.125h40v26.02h-40v-26.02zm61.02 69.145h-61.02v-26.02h61.02v26.02zm51.553 0H130.92v-26.02h34.447v26.02zm30.53-43.125H161.45v-26.02h34.447v26.02zm51.55 0h-34.446v-26.02h34.446v26.02zm51.552 0h-34.447v-26.02H299v26.02zm17.104 0v-26.02h34.447v26.02h-34.447zm55.468 43.125h-34.447v-26.02h34.447v26.02zm51.55 0h-34.446v-26.02h34.446v26.02zm36.084 0h-18.98v-26.02h18.98v26.02zm0-43.126h-40v-26.02h12.468c4.723 0 8.553-3.83 8.553-8.553v-34.573h18.98v69.145zM233.993 79.706c-16.85 0-30.56 13.7-30.56 30.56v42.83c0 7.42-6.035 13.454-13.454 13.454s-13.454-6.036-13.454-13.454V49c0-4.723-3.83-8.552-8.553-8.552s-8.552 3.83-8.552 8.552v104.097c0 16.85 13.708 30.56 30.56 30.56s30.56-13.7 30.56-30.56v-42.83c0-7.42 6.036-13.455 13.455-13.455s13.454 6.036 13.454 13.455v83.615c0 4.723 3.83 8.553 8.552 8.553s8.552-3.83 8.552-8.553v-83.616c.001-16.85-13.707-30.56-30.558-30.56z"/></svg>