<svg xmlns="http://www.w3.org/2000/svg" viewBox="0 0 455.731 455.731"><path d="M0 0h455.73v455.73H0z" fill="#50abf1"/><path d="M60.377 337.822c30.33 19.236 66.308 30.368 104.875 30.368 108.35 0 196.18-87.84 196.18-196.18 0-2.705-.057-5.4-.16-8.067 3.92-3.084 28.157-22.51 34.098-35 0 0-19.683 8.18-38.947 10.107-.038 0-.085.01-.123.01 0 0 .038-.02.104-.066 1.775-1.186 26.59-18.08 29.95-38.207 0 0-13.922 7.43-33.415 13.932-3.227 1.072-6.605 2.126-10.088 3.103-12.565-13.4-30.425-21.78-50.25-21.78-38.027 0-68.84 30.805-68.84 68.803a68.67 68.67 0 0 0 1.784 15.592c-5.314-.218-86.237-4.755-141.29-71.423 0 0-32.902 44.917 19.607 91.105 0 0-15.962-.636-29.733-8.864 0 0-5.058 54.416 54.407 68.33 0 0-11.7 4.432-30.368 1.272 0 0 10.44 43.968 63.27 48.077 0 0-41.777 37.74-101.08 28.885l.02.005z" fill="#fff"/></svg>